<svg version="1.1" id="Layer_1" xmlns="http://www.w3.org/2000/svg" xmlns:xlink="http://www.w3.org/1999/xlink" x="0px" y="0px"
	 width="100%" viewBox="0 0 750 750" enable-background="new 0 0 750 750" xml:space="preserve">
<path fill="#FFFFFF" opacity="1.000000" stroke="none" 
	d="
M436.000000,751.000000 
	C290.666656,751.000000 145.833328,751.000000 1.000000,751.000000 
	C1.000000,501.000000 1.000000,251.000000 1.000000,1.000000 
	C251.000000,1.000000 501.000000,1.000000 751.000000,1.000000 
	C751.000000,251.000000 751.000000,501.000000 751.000000,751.000000 
	C646.166687,751.000000 541.333313,751.000000 436.000000,751.000000 
M389.500305,59.210274 
	C365.014343,59.380440 340.528351,59.550632 316.042389,59.720505 
	C315.709076,59.722816 315.370697,59.759075 315.043243,59.715298 
	C312.223541,59.338268 310.953003,60.700470 310.133972,63.345772 
	C293.183167,118.095619 276.161652,172.823593 259.141724,227.552002 
	C257.212463,233.755646 255.209061,239.936234 253.240036,246.127518 
	C251.462433,244.387726 250.680786,242.759262 250.156525,241.051788 
	C241.720932,213.576569 233.343506,186.083496 224.901169,158.610352 
	C215.336655,127.485497 205.579376,96.418526 196.285873,65.213234 
	C194.958008,60.754581 193.190292,59.599030 188.843887,59.629902 
	C163.180374,59.812160 137.514923,59.718479 111.850113,59.717682 
	C110.229050,59.717632 108.607986,59.717670 106.591606,59.717670 
	C106.971054,61.280453 107.109001,62.244587 107.436249,63.139496 
	C123.580299,107.288010 139.732269,151.433624 155.901306,195.572983 
	C174.812744,247.198822 193.765854,298.809448 212.562775,350.476929 
	C213.264145,352.404816 213.064423,355.057037 212.355637,357.039612 
	C205.812775,375.341309 199.025375,393.555267 192.383972,411.822021 
	C164.404495,488.777679 136.446533,565.741150 108.498451,642.708191 
	C106.845505,647.260315 105.347694,651.868713 103.599487,656.971069 
	C106.017578,656.971069 107.503220,656.971069 108.988869,656.971069 
	C133.820404,656.971130 158.652985,656.857910 183.482407,657.086487 
	C187.453598,657.123047 188.934265,655.656921 189.960114,652.210632 
	C193.892593,638.999695 198.117706,625.875610 202.020935,612.656372 
	C203.070236,609.102661 204.708481,607.859375 208.579483,607.885132 
	C237.742737,608.079346 266.908813,608.103455 296.071442,607.867249 
	C300.355560,607.832520 301.757660,609.450806 302.854736,613.139526 
	C306.784546,626.352295 311.178986,639.427795 315.036652,652.660522 
	C316.119080,656.373474 318.008453,657.047119 321.452179,657.036987 
	C357.449005,656.931030 393.446228,656.974426 429.443359,656.959595 
	C430.870911,656.958984 432.298401,656.791199 434.142029,656.675110 
	C434.142029,601.684448 434.142029,547.135193 434.142029,492.585968 
	C436.529053,494.119934 437.958557,496.018158 439.174103,498.044708 
	C470.130402,549.653198 501.100098,601.253662 531.916504,652.945618 
	C533.843201,656.177429 535.978271,657.059448 539.501892,657.040649 
	C563.999451,656.909546 588.499023,656.851135 612.995178,657.078796 
	C617.646667,657.122070 618.892456,655.780457 618.886597,651.182861 
	C618.763611,554.023438 618.794922,456.863739 618.781250,359.704132 
	C618.781006,357.922333 618.601074,356.140533 618.476379,353.828247 
	C597.695862,353.828247 577.369263,353.828247 555.722290,353.828247 
	C559.055847,351.819794 561.142212,350.505127 563.281677,349.283661 
	C572.926514,343.777069 581.142761,336.596466 588.444580,328.261505 
	C609.292542,304.463593 618.237549,275.923492 618.685608,245.155563 
	C619.563965,184.839111 619.012024,124.501793 619.039185,64.173103 
	C619.039795,62.864330 618.885010,61.555481 618.777649,59.847672 
	C591.825256,59.847672 565.088013,59.847672 537.953003,59.847672 
	C537.820190,62.408485 537.598206,64.702736 537.597351,66.997063 
	C537.577393,120.659828 537.573730,174.322601 537.586487,227.985382 
	C537.589661,241.414474 536.299072,254.575775 529.919128,266.734222 
	C521.322571,283.116608 507.879059,291.729828 489.269806,291.336700 
	C470.444000,290.939026 458.552277,280.623199 451.339935,263.875946 
	C446.340515,252.267197 445.513794,240.059784 445.514923,227.680237 
	C445.519928,173.684158 445.466583,119.687943 445.600739,65.692192 
	C445.612335,61.029099 444.446747,59.264091 439.483673,59.327503 
	C423.159088,59.536091 406.828644,59.284859 389.500305,59.210274 
z"/>
<path fill="#010101" opacity="1.000000" stroke="none" 
	d="
M390.000366,59.210274 
	C406.828644,59.284859 423.159088,59.536091 439.483673,59.327503 
	C444.446747,59.264091 445.612335,61.029099 445.600739,65.692192 
	C445.466583,119.687943 445.519928,173.684158 445.514923,227.680237 
	C445.513794,240.059784 446.340515,252.267197 451.339935,263.875946 
	C458.552277,280.623199 470.444000,290.939026 489.269806,291.336700 
	C507.879059,291.729828 521.322571,283.116608 529.919128,266.734222 
	C536.299072,254.575775 537.589661,241.414474 537.586487,227.985382 
	C537.573730,174.322601 537.577393,120.659828 537.597351,66.997063 
	C537.598206,64.702736 537.820190,62.408485 537.953003,59.847672 
	C565.088013,59.847672 591.825256,59.847672 618.777649,59.847672 
	C618.885010,61.555481 619.039795,62.864330 619.039185,64.173103 
	C619.012024,124.501793 619.563965,184.839111 618.685608,245.155563 
	C618.237549,275.923492 609.292542,304.463593 588.444580,328.261505 
	C581.142761,336.596466 572.926514,343.777069 563.281677,349.283661 
	C561.142212,350.505127 559.055847,351.819794 555.722290,353.828247 
	C577.369263,353.828247 597.695862,353.828247 618.476379,353.828247 
	C618.601074,356.140533 618.781006,357.922333 618.781250,359.704132 
	C618.794922,456.863739 618.763611,554.023438 618.886597,651.182861 
	C618.892456,655.780457 617.646667,657.122070 612.995178,657.078796 
	C588.499023,656.851135 563.999451,656.909546 539.501892,657.040649 
	C535.978271,657.059448 533.843201,656.177429 531.916504,652.945618 
	C501.100098,601.253662 470.130402,549.653198 439.174103,498.044708 
	C437.958557,496.018158 436.529053,494.119934 434.142029,492.585968 
	C434.142029,547.135193 434.142029,601.684448 434.142029,656.675110 
	C432.298401,656.791199 430.870911,656.958984 429.443359,656.959595 
	C393.446228,656.974426 357.449005,656.931030 321.452179,657.036987 
	C318.008453,657.047119 316.119080,656.373474 315.036652,652.660522 
	C311.178986,639.427795 306.784546,626.352295 302.854736,613.139526 
	C301.757660,609.450806 300.355560,607.832520 296.071442,607.867249 
	C266.908813,608.103455 237.742737,608.079346 208.579483,607.885132 
	C204.708481,607.859375 203.070236,609.102661 202.020935,612.656372 
	C198.117706,625.875610 193.892593,638.999695 189.960114,652.210632 
	C188.934265,655.656921 187.453598,657.123047 183.482407,657.086487 
	C158.652985,656.857910 133.820404,656.971130 108.988869,656.971069 
	C107.503220,656.971069 106.017578,656.971069 103.599487,656.971069 
	C105.347694,651.868713 106.845505,647.260315 108.498451,642.708191 
	C136.446533,565.741150 164.404495,488.777679 192.383972,411.822021 
	C199.025375,393.555267 205.812775,375.341309 212.355637,357.039612 
	C213.064423,355.057037 213.264145,352.404816 212.562775,350.476929 
	C193.765854,298.809448 174.812744,247.198822 155.901306,195.572983 
	C139.732269,151.433624 123.580299,107.288010 107.436249,63.139496 
	C107.109001,62.244587 106.971054,61.280453 106.591606,59.717670 
	C108.607986,59.717670 110.229050,59.717632 111.850113,59.717682 
	C137.514923,59.718479 163.180374,59.812160 188.843887,59.629902 
	C193.190292,59.599030 194.958008,60.754581 196.285873,65.213234 
	C205.579376,96.418526 215.336655,127.485497 224.901169,158.610352 
	C233.343506,186.083496 241.720932,213.576569 250.156525,241.051788 
	C250.680786,242.759262 251.462433,244.387726 253.240036,246.127518 
	C255.209061,239.936234 257.212463,233.755646 259.141724,227.552002 
	C276.161652,172.823593 293.183167,118.095619 310.133972,63.345772 
	C310.953003,60.700470 312.223541,59.338268 315.043243,59.715298 
	C315.370697,59.759075 315.709076,59.722816 316.042389,59.720505 
	C340.528351,59.550632 365.014343,59.380440 390.000366,59.210274 
M343.553650,498.013947 
	C346.451691,506.079529 349.349701,514.145142 352.247742,522.210754 
	C352.683044,522.117249 353.118317,522.023743 353.553619,521.930237 
	C353.553619,466.026947 353.553619,410.123657 353.553619,353.806458 
	C377.997009,353.806458 401.869202,353.806458 427.051544,353.806458 
	C424.356354,352.240570 422.713196,351.499207 421.313110,350.437378 
	C413.132690,344.233795 404.149200,338.799377 397.026917,331.544342 
	C375.240845,309.352203 365.751984,281.490662 364.341003,251.102005 
	C363.028107,222.825424 363.467651,194.467422 363.140015,166.145218 
	C363.119781,164.395844 363.137421,162.646057 363.137421,160.896454 
	C361.768463,162.001633 361.225769,163.305084 360.739685,164.629303 
	C357.190430,174.297989 353.640839,183.966583 350.112946,193.643097 
	C331.049683,245.930786 311.962982,298.210052 293.034912,350.546631 
	C292.222870,352.791962 292.179871,355.830627 292.981750,358.068604 
	C309.623901,404.516602 326.440521,450.902100 343.553650,498.013947 
M537.206238,471.500092 
	C537.206238,434.712036 537.206238,397.924011 537.206238,360.739166 
	C520.504150,365.238922 504.091309,367.107422 487.337585,366.953674 
	C470.564911,366.799774 454.337891,363.960785 437.483521,358.179199 
	C470.639954,414.116974 503.125427,468.922699 535.610901,523.728394 
	C536.142639,523.647705 536.674438,523.566956 537.206238,523.486267 
	C537.206238,506.490875 537.206238,489.495514 537.206238,471.500092 
M229.031433,539.877136 
	C245.858612,539.877136 262.685791,539.877136 280.152466,539.877136 
	C270.921692,510.414703 262.073364,482.173035 253.225067,453.931366 
	C251.380859,455.407349 250.598709,456.937714 250.086823,458.553680 
	C245.877518,471.841949 241.719818,485.146576 237.543747,498.445374 
	C233.766037,510.475647 229.890915,522.476990 226.313156,534.566406 
	C225.813690,536.254150 223.064011,539.722107 229.031433,539.877136 
z"/>
<path fill="#FDFDFD" opacity="1.000000" stroke="none" 
	d="
M343.388123,497.656952 
	C326.440521,450.902100 309.623901,404.516602 292.981750,358.068604 
	C292.179871,355.830627 292.222870,352.791962 293.034912,350.546631 
	C311.962982,298.210052 331.049683,245.930786 350.112946,193.643097 
	C353.640839,183.966583 357.190430,174.297989 360.739685,164.629303 
	C361.225769,163.305084 361.768463,162.001633 363.137421,160.896454 
	C363.137421,162.646057 363.119781,164.395844 363.140015,166.145218 
	C363.467651,194.467422 363.028107,222.825424 364.341003,251.102005 
	C365.751984,281.490662 375.240845,309.352203 397.026917,331.544342 
	C404.149200,338.799377 413.132690,344.233795 421.313110,350.437378 
	C422.713196,351.499207 424.356354,352.240570 427.051544,353.806458 
	C401.869202,353.806458 377.997009,353.806458 353.553619,353.806458 
	C353.553619,410.123657 353.553619,466.026947 353.553619,521.930237 
	C353.118317,522.023743 352.683044,522.117249 352.247742,522.210754 
	C349.349701,514.145142 346.451691,506.079529 343.388123,497.656952 
z"/>
<path fill="#FDFDFD" opacity="1.000000" stroke="none" 
	d="
M537.206238,472.000122 
	C537.206238,489.495514 537.206238,506.490875 537.206238,523.486267 
	C536.674438,523.566956 536.142639,523.647705 535.610901,523.728394 
	C503.125427,468.922699 470.639954,414.116974 437.483521,358.179199 
	C454.337891,363.960785 470.564911,366.799774 487.337585,366.953674 
	C504.091309,367.107422 520.504150,365.238922 537.206238,360.739166 
	C537.206238,397.924011 537.206238,434.712036 537.206238,472.000122 
z"/>
<path fill="#FBFBFB" opacity="1.000000" stroke="none" 
	d="
M228.593704,539.882690 
	C223.064011,539.722107 225.813690,536.254150 226.313156,534.566406 
	C229.890915,522.476990 233.766037,510.475647 237.543747,498.445374 
	C241.719818,485.146576 245.877518,471.841949 250.086823,458.553680 
	C250.598709,456.937714 251.380859,455.407349 253.225067,453.931366 
	C262.073364,482.173035 270.921692,510.414703 280.152466,539.877136 
	C262.685791,539.877136 245.858612,539.877136 228.593704,539.882690 
z"/>
</svg>